<mxfile host="app.diagrams.net" modified="2021-04-27T10:15:40.060Z" agent="5.0 (Windows NT 10.0; Win64; x64) AppleWebKit/537.36 (KHTML, like Gecko) Chrome/90.0.4430.93 Safari/537.36" etag="OQF9PVbW18hgISxOcYHR" version="14.6.6" type="github">
  <diagram id="RwiMbDzacSFdeEn7rkE9" name="Page-1">
    <mxGraphModel dx="1381" dy="526" grid="0" gridSize="10" guides="1" tooltips="1" connect="1" arrows="1" fold="1" page="0" pageScale="1" pageWidth="827" pageHeight="1169" math="0" shadow="0">
      <root>
        <mxCell id="0" />
        <mxCell id="1" parent="0" />
        <mxCell id="F9MKh-bM_DIxNBzDH7Ra-17" value="" style="endArrow=classic;startArrow=classic;html=1;" parent="1" edge="1">
          <mxGeometry x="0.2" width="50" height="50" relative="1" as="geometry">
            <mxPoint x="-79" y="313" as="sourcePoint" />
            <mxPoint x="24" y="313" as="targetPoint" />
            <mxPoint as="offset" />
          </mxGeometry>
        </mxCell>
        <mxCell id="F9MKh-bM_DIxNBzDH7Ra-22" value="" style="endArrow=classic;startArrow=classic;html=1;" parent="1" edge="1">
          <mxGeometry x="0.2" width="50" height="50" relative="1" as="geometry">
            <mxPoint x="317.5" y="312" as="sourcePoint" />
            <mxPoint x="418" y="312" as="targetPoint" />
            <mxPoint as="offset" />
          </mxGeometry>
        </mxCell>
        <mxCell id="Z2y6GkYecp9Ryr5ajYGl-1" value="" style="endArrow=classic;startArrow=classic;html=1;dashed=1;fontFamily=song;fontSource=http%3A%2F%2Fdb.onlinewebfonts.com%2Ft%2F2ecbfe1d9bfc191c6f15c0ccc23cbd43.woff;fontStyle=1" parent="1" edge="1">
          <mxGeometry width="50" height="50" relative="1" as="geometry">
            <mxPoint x="24" y="139" as="sourcePoint" />
            <mxPoint x="520" y="139" as="targetPoint" />
          </mxGeometry>
        </mxCell>
        <mxCell id="Z2y6GkYecp9Ryr5ajYGl-2" value="" style="endArrow=classic;startArrow=none;html=1;dashed=1;startFill=0;fontFamily=song;fontSource=http%3A%2F%2Fdb.onlinewebfonts.com%2Ft%2F2ecbfe1d9bfc191c6f15c0ccc23cbd43.woff;fontStyle=1" parent="1" edge="1">
          <mxGeometry width="50" height="50" relative="1" as="geometry">
            <mxPoint x="-80" y="139" as="sourcePoint" />
            <mxPoint x="25" y="139" as="targetPoint" />
          </mxGeometry>
        </mxCell>
        <mxCell id="Z2y6GkYecp9Ryr5ajYGl-3" value="" style="endArrow=classic;startArrow=none;html=1;dashed=1;startFill=0;fontFamily=song;fontSource=http%3A%2F%2Fdb.onlinewebfonts.com%2Ft%2F2ecbfe1d9bfc191c6f15c0ccc23cbd43.woff;fontStyle=1" parent="1" edge="1">
          <mxGeometry width="50" height="50" relative="1" as="geometry">
            <mxPoint x="806" y="139" as="sourcePoint" />
            <mxPoint x="521" y="139" as="targetPoint" />
          </mxGeometry>
        </mxCell>
        <mxCell id="Z2y6GkYecp9Ryr5ajYGl-19" value="&lt;font style=&quot;font-size: 15px&quot;&gt;第&lt;font face=&quot;Times New Roman&quot;&gt;k&lt;/font&gt;跳&lt;/font&gt;" style="text;html=1;strokeColor=none;fillColor=none;align=center;verticalAlign=middle;whiteSpace=wrap;rounded=0;dashed=1;fontFamily=song;fontSource=http%3A%2F%2Fdb.onlinewebfonts.com%2Ft%2F2ecbfe1d9bfc191c6f15c0ccc23cbd43.woff;fontStyle=1" parent="1" vertex="1">
          <mxGeometry x="230" y="108" width="90" height="20" as="geometry" />
        </mxCell>
        <mxCell id="Z2y6GkYecp9Ryr5ajYGl-20" value="&lt;font style=&quot;font-size: 15px&quot;&gt;第&lt;font face=&quot;Times New Roman&quot;&gt;k-1&lt;/font&gt;跳&lt;/font&gt;" style="text;html=1;strokeColor=none;fillColor=none;align=center;verticalAlign=middle;whiteSpace=wrap;rounded=0;dashed=1;fontFamily=song;fontSource=http%3A%2F%2Fdb.onlinewebfonts.com%2Ft%2F2ecbfe1d9bfc191c6f15c0ccc23cbd43.woff;fontStyle=1" parent="1" vertex="1">
          <mxGeometry x="-67" y="108" width="90" height="20" as="geometry" />
        </mxCell>
        <mxCell id="Z2y6GkYecp9Ryr5ajYGl-21" value="&lt;font style=&quot;font-size: 15px&quot;&gt;第&lt;font face=&quot;Times New Roman&quot;&gt;k+1&lt;/font&gt;跳&lt;/font&gt;" style="text;html=1;strokeColor=none;fillColor=none;align=center;verticalAlign=middle;whiteSpace=wrap;rounded=0;dashed=1;fontFamily=song;fontSource=http%3A%2F%2Fdb.onlinewebfonts.com%2Ft%2F2ecbfe1d9bfc191c6f15c0ccc23cbd43.woff;fontStyle=1" parent="1" vertex="1">
          <mxGeometry x="639" y="108" width="90" height="20" as="geometry" />
        </mxCell>
        <mxCell id="Z2y6GkYecp9Ryr5ajYGl-26" value="" style="endArrow=classic;html=1;" parent="1" edge="1">
          <mxGeometry width="50" height="50" relative="1" as="geometry">
            <mxPoint x="-123.85714285714286" y="343" as="sourcePoint" />
            <mxPoint x="853" y="343" as="targetPoint" />
          </mxGeometry>
        </mxCell>
        <mxCell id="Z2y6GkYecp9Ryr5ajYGl-27" value="" style="endArrow=none;html=1;" parent="1" edge="1">
          <mxGeometry width="50" height="50" relative="1" as="geometry">
            <mxPoint x="-79" y="342" as="sourcePoint" />
            <mxPoint x="-79" y="193" as="targetPoint" />
          </mxGeometry>
        </mxCell>
        <mxCell id="Z2y6GkYecp9Ryr5ajYGl-35" value="" style="endArrow=none;html=1;dashed=1;" parent="1" edge="1">
          <mxGeometry width="50" height="50" relative="1" as="geometry">
            <mxPoint x="24" y="343" as="sourcePoint" />
            <mxPoint x="24" y="133" as="targetPoint" />
          </mxGeometry>
        </mxCell>
        <mxCell id="Z2y6GkYecp9Ryr5ajYGl-39" value="" style="endArrow=none;html=1;dashed=1;" parent="1" edge="1">
          <mxGeometry width="50" height="50" relative="1" as="geometry">
            <mxPoint x="119" y="342" as="sourcePoint" />
            <mxPoint x="119.00999999999999" y="264" as="targetPoint" />
          </mxGeometry>
        </mxCell>
        <mxCell id="Z2y6GkYecp9Ryr5ajYGl-40" value="" style="endArrow=classic;startArrow=classic;html=1;" parent="1" edge="1">
          <mxGeometry x="0.2" width="50" height="50" relative="1" as="geometry">
            <mxPoint x="26" y="313" as="sourcePoint" />
            <mxPoint x="117" y="313" as="targetPoint" />
            <mxPoint as="offset" />
          </mxGeometry>
        </mxCell>
        <mxCell id="Z2y6GkYecp9Ryr5ajYGl-41" value="到达时间识别时延" style="text;html=1;strokeColor=none;fillColor=none;align=center;verticalAlign=middle;whiteSpace=wrap;rounded=0;dashed=1;fontSize=15;fontFamily=song;fontSource=http%3A%2F%2Fdb.onlinewebfonts.com%2Ft%2F2ecbfe1d9bfc191c6f15c0ccc23cbd43.woff;fontStyle=1" parent="1" vertex="1">
          <mxGeometry x="37" y="268" width="65" height="25" as="geometry" />
        </mxCell>
        <mxCell id="Z2y6GkYecp9Ryr5ajYGl-43" value="" style="endArrow=none;html=1;dashed=1;" parent="1" edge="1">
          <mxGeometry width="50" height="50" relative="1" as="geometry">
            <mxPoint x="209" y="342" as="sourcePoint" />
            <mxPoint x="209.01" y="264" as="targetPoint" />
          </mxGeometry>
        </mxCell>
        <mxCell id="Z2y6GkYecp9Ryr5ajYGl-44" value="" style="endArrow=classic;startArrow=classic;html=1;" parent="1" edge="1">
          <mxGeometry x="0.2" width="50" height="50" relative="1" as="geometry">
            <mxPoint x="120" y="313" as="sourcePoint" />
            <mxPoint x="206" y="313" as="targetPoint" />
            <mxPoint as="offset" />
          </mxGeometry>
        </mxCell>
        <mxCell id="Z2y6GkYecp9Ryr5ajYGl-45" value="&lt;span style=&quot;font-size: 15px;&quot;&gt;内部处理时延&lt;/span&gt;" style="text;html=1;strokeColor=none;fillColor=none;align=center;verticalAlign=middle;whiteSpace=wrap;rounded=0;dashed=1;fontSize=15;fontFamily=song;fontSource=http%3A%2F%2Fdb.onlinewebfonts.com%2Ft%2F2ecbfe1d9bfc191c6f15c0ccc23cbd43.woff;fontStyle=1" parent="1" vertex="1">
          <mxGeometry x="133" y="268" width="62" height="25" as="geometry" />
        </mxCell>
        <mxCell id="Z2y6GkYecp9Ryr5ajYGl-48" value="" style="endArrow=none;html=1;" parent="1" edge="1">
          <mxGeometry width="50" height="50" relative="1" as="geometry">
            <mxPoint x="317" y="343" as="sourcePoint" />
            <mxPoint x="317" y="194" as="targetPoint" />
          </mxGeometry>
        </mxCell>
        <mxCell id="Z2y6GkYecp9Ryr5ajYGl-50" value="" style="endArrow=classic;startArrow=classic;html=1;" parent="1" edge="1">
          <mxGeometry x="0.2" width="50" height="50" relative="1" as="geometry">
            <mxPoint x="210" y="312" as="sourcePoint" />
            <mxPoint x="316" y="312" as="targetPoint" />
            <mxPoint as="offset" />
          </mxGeometry>
        </mxCell>
        <mxCell id="Z2y6GkYecp9Ryr5ajYGl-52" value="&lt;span style=&quot;color: rgb(0, 0, 0); font-size: 15px; font-style: normal; letter-spacing: normal; text-align: center; text-indent: 0px; text-transform: none; word-spacing: 0px; background-color: rgb(255, 255, 255); display: inline; float: none;&quot;&gt;排队时延&lt;/span&gt;" style="text;whiteSpace=wrap;html=1;fontSize=15;fontFamily=song;fontSource=http%3A%2F%2Fdb.onlinewebfonts.com%2Ft%2F2ecbfe1d9bfc191c6f15c0ccc23cbd43.woff;fontStyle=1" parent="1" vertex="1">
          <mxGeometry x="233" y="260" width="71" height="21" as="geometry" />
        </mxCell>
        <mxCell id="Z2y6GkYecp9Ryr5ajYGl-53" value="&lt;span style=&quot;color: rgb(0, 0, 0); font-size: 15px; font-style: normal; letter-spacing: normal; text-align: center; text-indent: 0px; text-transform: none; word-spacing: 0px; background-color: rgb(255, 255, 255); display: inline; float: none;&quot;&gt;链路时延&lt;/span&gt;" style="text;whiteSpace=wrap;html=1;fontSize=15;fontFamily=song;fontSource=http%3A%2F%2Fdb.onlinewebfonts.com%2Ft%2F2ecbfe1d9bfc191c6f15c0ccc23cbd43.woff;fontStyle=1" parent="1" vertex="1">
          <mxGeometry x="335.99666666666667" y="265.00333333333333" width="128" height="21" as="geometry" />
        </mxCell>
        <mxCell id="Z2y6GkYecp9Ryr5ajYGl-54" value="" style="endArrow=classic;startArrow=classic;html=1;" parent="1" edge="1">
          <mxGeometry x="0.2" width="50" height="50" relative="1" as="geometry">
            <mxPoint x="416.65999999999997" y="312" as="sourcePoint" />
            <mxPoint x="519.66" y="312" as="targetPoint" />
            <mxPoint as="offset" />
          </mxGeometry>
        </mxCell>
        <mxCell id="Z2y6GkYecp9Ryr5ajYGl-55" value="" style="endArrow=none;html=1;strokeWidth=2;" parent="1" edge="1">
          <mxGeometry width="50" height="50" relative="1" as="geometry">
            <mxPoint x="416.65999999999997" y="341" as="sourcePoint" />
            <mxPoint x="417" y="197" as="targetPoint" />
          </mxGeometry>
        </mxCell>
        <mxCell id="Z2y6GkYecp9Ryr5ajYGl-56" value="" style="endArrow=none;html=1;dashed=1;" parent="1" edge="1">
          <mxGeometry width="50" height="50" relative="1" as="geometry">
            <mxPoint x="519.66" y="342" as="sourcePoint" />
            <mxPoint x="520" y="130" as="targetPoint" />
          </mxGeometry>
        </mxCell>
        <mxCell id="Z2y6GkYecp9Ryr5ajYGl-58" value="" style="endArrow=none;html=1;dashed=1;" parent="1" edge="1">
          <mxGeometry width="50" height="50" relative="1" as="geometry">
            <mxPoint x="614.66" y="341" as="sourcePoint" />
            <mxPoint x="614.67" y="263" as="targetPoint" />
          </mxGeometry>
        </mxCell>
        <mxCell id="Z2y6GkYecp9Ryr5ajYGl-59" value="" style="endArrow=classic;startArrow=classic;html=1;" parent="1" edge="1">
          <mxGeometry x="0.2" width="50" height="50" relative="1" as="geometry">
            <mxPoint x="521.66" y="312" as="sourcePoint" />
            <mxPoint x="612.66" y="312" as="targetPoint" />
            <mxPoint as="offset" />
          </mxGeometry>
        </mxCell>
        <mxCell id="Z2y6GkYecp9Ryr5ajYGl-61" value="" style="endArrow=none;html=1;dashed=1;" parent="1" edge="1">
          <mxGeometry width="50" height="50" relative="1" as="geometry">
            <mxPoint x="704.66" y="341" as="sourcePoint" />
            <mxPoint x="704.67" y="263" as="targetPoint" />
          </mxGeometry>
        </mxCell>
        <mxCell id="Z2y6GkYecp9Ryr5ajYGl-62" value="" style="endArrow=classic;startArrow=classic;html=1;" parent="1" edge="1">
          <mxGeometry x="0.2" width="50" height="50" relative="1" as="geometry">
            <mxPoint x="615.66" y="312" as="sourcePoint" />
            <mxPoint x="701.66" y="312" as="targetPoint" />
            <mxPoint as="offset" />
          </mxGeometry>
        </mxCell>
        <mxCell id="Z2y6GkYecp9Ryr5ajYGl-63" value="&lt;span style=&quot;font-size: 15px;&quot;&gt;内部处理时延&lt;/span&gt;" style="text;html=1;strokeColor=none;fillColor=none;align=center;verticalAlign=middle;whiteSpace=wrap;rounded=0;dashed=1;fontSize=15;fontFamily=song;fontSource=http%3A%2F%2Fdb.onlinewebfonts.com%2Ft%2F2ecbfe1d9bfc191c6f15c0ccc23cbd43.woff;fontStyle=1" parent="1" vertex="1">
          <mxGeometry x="623" y="268" width="71" height="25" as="geometry" />
        </mxCell>
        <mxCell id="Z2y6GkYecp9Ryr5ajYGl-64" value="" style="endArrow=none;html=1;strokeWidth=2;" parent="1" edge="1">
          <mxGeometry width="50" height="50" relative="1" as="geometry">
            <mxPoint x="812.66" y="342" as="sourcePoint" />
            <mxPoint x="812.66" y="193" as="targetPoint" />
          </mxGeometry>
        </mxCell>
        <mxCell id="Z2y6GkYecp9Ryr5ajYGl-65" value="" style="endArrow=classic;startArrow=classic;html=1;" parent="1" edge="1">
          <mxGeometry x="0.2" width="50" height="50" relative="1" as="geometry">
            <mxPoint x="705.66" y="311" as="sourcePoint" />
            <mxPoint x="811.6600000000002" y="311" as="targetPoint" />
            <mxPoint as="offset" />
          </mxGeometry>
        </mxCell>
        <mxCell id="Z2y6GkYecp9Ryr5ajYGl-66" value="" style="endArrow=none;html=1;fontSize=6;fontFamily=song;fontSource=http%3A%2F%2Fdb.onlinewebfonts.com%2Ft%2F2ecbfe1d9bfc191c6f15c0ccc23cbd43.woff;fontStyle=1" parent="1" edge="1">
          <mxGeometry width="50" height="50" relative="1" as="geometry">
            <mxPoint x="-78" y="195" as="sourcePoint" />
            <mxPoint x="316" y="195" as="targetPoint" />
          </mxGeometry>
        </mxCell>
        <mxCell id="Z2y6GkYecp9Ryr5ajYGl-67" value="" style="endArrow=none;html=1;fontSize=6;strokeWidth=2;fontFamily=song;fontSource=http%3A%2F%2Fdb.onlinewebfonts.com%2Ft%2F2ecbfe1d9bfc191c6f15c0ccc23cbd43.woff;fontStyle=1" parent="1" edge="1">
          <mxGeometry width="50" height="50" relative="1" as="geometry">
            <mxPoint x="416" y="197" as="sourcePoint" />
            <mxPoint x="815" y="197" as="targetPoint" />
          </mxGeometry>
        </mxCell>
        <mxCell id="Z2y6GkYecp9Ryr5ajYGl-69" value="&lt;span style=&quot;font-size: 15px&quot;&gt;&lt;span&gt;上游交换设备&lt;/span&gt;&lt;/span&gt;" style="text;html=1;strokeColor=none;fillColor=none;align=center;verticalAlign=middle;whiteSpace=wrap;rounded=0;dashed=1;fontFamily=song;fontSource=http%3A%2F%2Fdb.onlinewebfonts.com%2Ft%2F2ecbfe1d9bfc191c6f15c0ccc23cbd43.woff;fontStyle=1" parent="1" vertex="1">
          <mxGeometry x="197" y="201" width="123" height="20" as="geometry" />
        </mxCell>
        <mxCell id="Z2y6GkYecp9Ryr5ajYGl-70" value="&lt;span style=&quot;font-size: 15px&quot;&gt;&lt;span&gt;下游交换设备&lt;/span&gt;&lt;/span&gt;" style="text;html=1;strokeColor=none;fillColor=none;align=center;verticalAlign=middle;whiteSpace=wrap;rounded=0;dashed=1;fontFamily=song;fontSource=http%3A%2F%2Fdb.onlinewebfonts.com%2Ft%2F2ecbfe1d9bfc191c6f15c0ccc23cbd43.woff;fontStyle=1" parent="1" vertex="1">
          <mxGeometry x="697" y="201" width="118" height="20" as="geometry" />
        </mxCell>
        <mxCell id="Z2y6GkYecp9Ryr5ajYGl-71" value="" style="endArrow=none;html=1;fontSize=6;strokeWidth=2;fontFamily=song;fontSource=http%3A%2F%2Fdb.onlinewebfonts.com%2Ft%2F2ecbfe1d9bfc191c6f15c0ccc23cbd43.woff;fontStyle=1" parent="1" edge="1">
          <mxGeometry width="50" height="50" relative="1" as="geometry">
            <mxPoint x="-77.14" y="195" as="sourcePoint" />
            <mxPoint x="316.86000000000024" y="195" as="targetPoint" />
          </mxGeometry>
        </mxCell>
        <mxCell id="Z2y6GkYecp9Ryr5ajYGl-72" value="" style="endArrow=none;html=1;strokeWidth=2;" parent="1" edge="1">
          <mxGeometry width="50" height="50" relative="1" as="geometry">
            <mxPoint x="-78.14" y="342" as="sourcePoint" />
            <mxPoint x="-78.14" y="193" as="targetPoint" />
          </mxGeometry>
        </mxCell>
        <mxCell id="Z2y6GkYecp9Ryr5ajYGl-73" value="" style="endArrow=none;html=1;strokeWidth=2;" parent="1" edge="1">
          <mxGeometry width="50" height="50" relative="1" as="geometry">
            <mxPoint x="317.86" y="343" as="sourcePoint" />
            <mxPoint x="317.86" y="194" as="targetPoint" />
          </mxGeometry>
        </mxCell>
        <mxCell id="Z2y6GkYecp9Ryr5ajYGl-74" value="" style="endArrow=classic;html=1;strokeWidth=2;" parent="1" edge="1">
          <mxGeometry width="50" height="50" relative="1" as="geometry">
            <mxPoint x="-122.99714285714289" y="343" as="sourcePoint" />
            <mxPoint x="853.86" y="343" as="targetPoint" />
          </mxGeometry>
        </mxCell>
        <mxCell id="Z2y6GkYecp9Ryr5ajYGl-75" value="&lt;span style=&quot;color: rgb(0, 0, 0); font-size: 15px; font-style: normal; letter-spacing: normal; text-align: center; text-indent: 0px; text-transform: none; word-spacing: 0px; background-color: rgb(255, 255, 255); display: inline; float: none;&quot;&gt;排队时延&lt;/span&gt;" style="text;whiteSpace=wrap;html=1;fontSize=15;fontFamily=song;fontSource=http%3A%2F%2Fdb.onlinewebfonts.com%2Ft%2F2ecbfe1d9bfc191c6f15c0ccc23cbd43.woff;fontStyle=1" parent="1" vertex="1">
          <mxGeometry x="727" y="257" width="68" height="21" as="geometry" />
        </mxCell>
        <mxCell id="Z2y6GkYecp9Ryr5ajYGl-76" value="&lt;span style=&quot;font-size: 15px&quot;&gt;存储转发以及排队时延&lt;/span&gt;" style="text;html=1;strokeColor=none;fillColor=none;align=center;verticalAlign=middle;whiteSpace=wrap;rounded=0;dashed=1;fontSize=15;fontFamily=song;fontSource=http%3A%2F%2Fdb.onlinewebfonts.com%2Ft%2F2ecbfe1d9bfc191c6f15c0ccc23cbd43.woff;fontStyle=1" parent="1" vertex="1">
          <mxGeometry x="-73.00000000000006" y="268" width="90" height="25" as="geometry" />
        </mxCell>
        <mxCell id="Z2y6GkYecp9Ryr5ajYGl-78" value="&lt;span style=&quot;font-size: 15px&quot;&gt;存储转发以及排队时延&lt;/span&gt;" style="text;html=1;strokeColor=none;fillColor=none;align=center;verticalAlign=middle;whiteSpace=wrap;rounded=0;dashed=1;fontSize=15;fontFamily=song;fontSource=http%3A%2F%2Fdb.onlinewebfonts.com%2Ft%2F2ecbfe1d9bfc191c6f15c0ccc23cbd43.woff;fontStyle=1" parent="1" vertex="1">
          <mxGeometry x="425.99999999999994" y="268" width="90" height="25" as="geometry" />
        </mxCell>
        <mxCell id="Z2y6GkYecp9Ryr5ajYGl-79" value="到达时间识别时延" style="text;html=1;strokeColor=none;fillColor=none;align=center;verticalAlign=middle;whiteSpace=wrap;rounded=0;dashed=1;fontSize=15;fontFamily=song;fontSource=http%3A%2F%2Fdb.onlinewebfonts.com%2Ft%2F2ecbfe1d9bfc191c6f15c0ccc23cbd43.woff;fontStyle=1" parent="1" vertex="1">
          <mxGeometry x="534" y="268" width="65" height="25" as="geometry" />
        </mxCell>
      </root>
    </mxGraphModel>
  </diagram>
</mxfile>
